<?xml version="1.0" encoding="utf-8"?>
<!-- Generator: Adobe Illustrator 28.1.0, SVG Export Plug-In . SVG Version: 6.00 Build 0)  -->
<svg version="1.1" id="_x31_" xmlns="http://www.w3.org/2000/svg" xmlns:xlink="http://www.w3.org/1999/xlink" x="0px" y="0px"
	 viewBox="0 0 600 600" enable-background="new 0 0 600 600" xml:space="preserve">
<rect y="100" fill="#259C3B" width="600" height="400"/>
<polygon fill="#F8E11E" points="300,140.123993 50.8311,300 300,459.876007 549.168884,300 "/>
<path fill="#1C2675" d="M318.586914,267.502411c41.669891,14.246582,68.559601,32.387207,84.927673,46.770996
	c0.637695-4.667908,0.974701-9.430603,0.974701-14.273407c0-57.707504-46.781281-104.4888-104.489288-104.4888
	c-42.609894,0-79.257294,25.507797-95.519501,62.084015C234.615204,253.621094,276.128387,252.986298,318.586914,267.502411z"/>
<path fill="#1C2675" d="M198.740707,274.132812C196.633804,282.405304,195.5112,291.07132,195.5112,300
	c0,57.708008,46.781296,104.489288,104.4888,104.489288c46.973602,0,86.704102-30.997101,99.861298-73.651398
	c-17.743103-14.984406-45.817383-34.845184-81.973602-47.940002C268.70459,265.085907,219.5298,270.502899,198.740707,274.132812z"
	/>
<path fill="#FFFFFF" d="M318.586914,267.502411c-42.458527-14.516113-83.97171-13.881317-114.106415-9.907196
	c-2.354492,5.29538-4.283707,10.821777-5.739792,16.537598c20.789093-3.629913,69.963882-9.046906,119.146988,8.765076
	c36.156219,13.094818,64.230499,32.955597,81.973602,47.940002c1.650391-5.350586,2.877991-10.885803,3.65329-16.564484
	C387.146515,299.889618,360.256805,281.748993,318.586914,267.502411z"/>
<polygon fill="#FFFFFF" points="214.150894,276.794891 215.164597,279.915009 218.445297,279.915009 215.791504,281.843689 
	216.805206,284.963898 214.150894,283.035187 211.496597,284.963898 212.5103,281.843689 209.8564,279.915009 
	213.137207,279.915009 "/>
<polygon fill="#FFFFFF" points="223.807098,320.785187 224.820801,323.905304 228.101593,323.905304 225.4478,325.834015 
	226.461395,328.954102 223.807098,327.025391 221.152802,328.954102 222.166504,325.834015 219.512695,323.905304 
	222.793503,323.905304 "/>
<polygon fill="#FFFFFF" points="257.974091,351.118195 258.987793,354.238312 262.268585,354.238312 259.614685,356.166992 
	260.628387,359.287109 257.974091,357.358398 255.319794,359.287109 256.333496,356.166992 253.679703,354.238312 
	256.960388,354.238312 "/>
<polygon fill="#FFFFFF" points="300.180695,342.546906 301.194275,345.666992 304.474579,345.666992 301.821289,347.595703 
	302.834991,350.71579 300.180695,348.787109 297.526398,350.71579 298.540009,347.595703 295.8862,345.666992 
	299.166992,345.666992 "/>
<polygon fill="#FFFFFF" points="373.692413,332.451202 374.706085,335.571289 377.986298,335.571289 375.333008,337.5 
	376.34671,340.620087 373.692413,338.691406 371.038086,340.620087 372.051788,337.5 369.398407,335.571289 372.678711,335.571289 
	"/>
<polygon fill="#FFFFFF" points="332.692413,263.118195 333.706085,266.238312 336.986298,266.238312 334.333008,268.166992 
	335.34671,271.287109 332.692413,269.358398 330.038086,271.287109 331.051788,268.166992 328.398407,266.238312 
	331.678711,266.238312 "/>
<polygon fill="#FFFFFF" points="352.5,364.432587 353.300812,366.897491 355.892609,366.897491 353.795898,368.420898 
	354.59671,370.885712 352.5,369.362305 350.40329,370.885712 351.204102,368.420898 349.107391,366.897491 351.699188,366.897491 
	"/>
<polygon fill="#FFFFFF" points="371.533203,351.035187 372.334015,353.5 374.925812,353.5 372.829102,355.023407 
	373.629913,357.488312 371.533203,355.964813 369.436493,357.488312 370.237305,355.023407 368.140594,353.5 370.732391,353.5 "/>
<polygon fill="#FFFFFF" points="377.666992,342.833008 378.467804,345.297913 381.059601,345.297913 378.962891,346.821289 
	379.763702,349.286102 377.666992,347.762695 375.570312,349.286102 376.371094,346.821289 374.274414,345.297913 
	376.866211,345.297913 "/>
<polygon fill="#FFFFFF" points="331.199188,367.202087 332,369.666992 334.591797,369.666992 332.495087,371.190399 
	333.295898,373.655304 331.199188,372.131805 329.102509,373.655304 329.90329,371.190399 327.80661,369.666992 
	330.398407,369.666992 "/>
<polygon fill="#FFFFFF" points="312.199188,322.702087 313,325.166992 315.591797,325.166992 313.495087,326.690399 
	314.295898,329.155304 312.199188,327.631805 310.102509,329.155304 310.90329,326.690399 308.80658,325.166992 
	311.398407,325.166992 "/>
<polygon fill="#FFFFFF" points="300.199188,313.202087 301,315.666992 303.591797,315.666992 301.495087,317.190399 
	302.295898,319.655304 300.199188,318.131805 298.102478,319.655304 298.90329,317.190399 296.80658,315.666992 
	299.398407,315.666992 "/>
<polygon fill="#FFFFFF" points="260.032715,300.535217 260.833496,303 263.425293,303 261.328613,304.523407 262.129395,306.988312 
	260.032715,305.464813 257.936005,306.988312 258.736786,304.523407 256.640106,303 259.231903,303 "/>
<polygon fill="#FFFFFF" points="245.537598,332.011688 246.338394,334.476593 248.930206,334.476593 246.833496,336 
	247.634293,338.464813 245.537598,336.941406 243.440903,338.464813 244.241699,336 242.145004,334.476593 244.736801,334.476593 
	"/>
<polygon fill="#FFFFFF" points="242.370605,342.511688 243.171402,344.976593 245.763199,344.976593 243.666504,346.5 
	244.4673,348.964813 242.370605,347.441406 240.273895,348.964813 241.074707,346.5 238.977997,344.976593 241.569794,344.976593 
	"/>
<polygon fill="#FFFFFF" points="388.167999,335.013702 388.827087,337.040985 390.959015,337.040985 389.234406,338.294891 
	389.892609,340.322296 388.167999,339.069305 386.44339,340.322296 387.101593,338.294891 385.377014,337.040985 
	387.508789,337.040985 "/>
<polygon fill="#FFFFFF" points="363.02829,356.972687 363.6875,359 365.819305,359 364.094696,360.253906 364.752899,362.281189 
	363.02829,361.02829 361.303711,362.281189 361.961914,360.253906 360.237305,359 362.36911,359 "/>
<polygon fill="#FFFFFF" points="352.52829,375.847687 353.1875,377.875 355.319305,377.875 353.594696,379.128906 
	354.252899,381.156189 352.52829,379.90329 350.803711,381.156189 351.461914,379.128906 349.737305,377.875 351.86911,377.875 "/>
<polygon fill="#FFFFFF" points="340.46579,358.597687 341.125,360.625 343.256805,360.625 341.532196,361.878906 
	342.190399,363.906189 340.46579,362.65329 338.741211,363.906189 339.399414,361.878906 337.674805,360.625 339.80661,360.625 "/>
<polygon fill="#FFFFFF" points="323.15329,355.910187 323.8125,357.9375 325.944305,357.9375 324.219696,359.191406 
	324.877899,361.218689 323.15329,359.96579 321.428711,361.218689 322.086914,359.191406 320.362305,357.9375 322.49411,357.9375 
	"/>
<polygon fill="#FFFFFF" points="328.46579,291.847717 329.125,293.875 331.256805,293.875 329.532196,295.128906 
	330.190399,297.156219 328.46579,295.90332 326.741211,297.156219 327.399414,295.128906 325.674805,293.875 327.80661,293.875 "/>
<polygon fill="#FFFFFF" points="289.46579,323.472687 290.125,325.5 292.256775,325.5 290.532196,326.753906 291.190399,328.781189 
	289.46579,327.52829 287.741211,328.781189 288.399414,326.753906 286.674805,325.5 288.80661,325.5 "/>
<polygon fill="#FFFFFF" points="210.715805,331.722687 211.375,333.75 213.506805,333.75 211.782196,335.003906 
	212.440399,337.031189 210.715805,335.77829 208.991196,337.031189 209.649399,335.003906 207.924805,333.75 210.056595,333.75 "/>
<polygon fill="#FFFFFF" points="352.09079,354.972687 352.75,357 354.881805,357 353.157196,358.253906 353.815399,360.281189 
	352.09079,359.02829 350.366211,360.281189 351.024414,358.253906 349.299805,357 351.43161,357 "/>
<polygon fill="#FFFFFF" points="233.796906,316.878906 234.25,318.274414 235.7173,318.274414 234.530304,319.136688 
	234.983902,320.532196 233.796906,319.669891 232.609894,320.532196 233.063507,319.136688 231.876495,318.274414 
	233.343796,318.274414 "/>
<polygon fill="#FFFFFF" points="294.880402,331.9375 295.333496,333.333008 296.800781,333.333008 295.6138,334.195312 
	296.067383,335.59079 294.880402,334.728485 293.69339,335.59079 294.147003,334.195312 292.959991,333.333008 
	294.427185,333.333008 "/>
<polygon fill="#FFFFFF" points="300.022491,380.6875 300.368683,381.752899 301.489288,381.752899 300.582489,382.411102 
	300.92868,383.476593 300.022491,382.81839 299.11618,383.476593 299.462402,382.411102 298.555695,381.752899 299.6763,381.752899 
	"/>
<path fill="#259C3B" d="M213.979996,263.952087c0.257797,2.854126-1.409698,5.338409-3.723694,5.548401
	c-2.314896,0.209503-4.400803-1.934601-4.660095-4.789093c-0.257812-2.85498,1.409698-5.338806,3.723099-5.548309
	C211.633804,258.953094,213.720703,261.097198,213.979996,263.952087z"/>
<path fill="#FFFFFF" d="M212.363297,264.098114c0.158203,1.754395-0.865692,3.280273-2.287094,3.40918
	c-1.422409,0.128906-2.704102-1.188507-2.863297-2.942383c-0.158203-1.754425,0.865692-3.279724,2.287598-3.408722
	C210.922394,261.027313,212.204102,262.344208,212.363297,264.098114z"/>
<path fill="#259C3B" d="M330.757812,279.600098c-0.944305,2.72699-3.502899,4.317413-5.713898,3.552704
	c-2.210907-0.765106-3.23822-3.596588-2.295929-6.324188c0.944427-2.72702,3.503021-4.317413,5.713928-3.552216
	C330.671906,274.040985,331.700195,276.872589,330.757812,279.600098z"/>
<path fill="#FFFFFF" d="M329.197296,279.060089c-0.577209,1.66452-2.138702,2.634216-3.486389,2.167908
	c-1.350494-0.467285-1.977509-2.194794-1.402313-3.858887c0.577118-1.665009,2.138702-2.634216,3.487305-2.167419
	C329.145508,275.668488,329.772491,277.395508,329.197296,279.060089z"/>
<path fill="#259C3B" d="M397.386688,318.872101c-1.864197,2.239197-4.848602,2.828094-6.664001,1.318298
	c-1.816376-1.512695-1.775391-4.552704,0.087799-6.793884c1.864319-2.239319,4.84671-2.828125,6.664124-1.31842
	C399.289093,313.59079,399.25,316.63089,397.386688,318.872101z"/>
<path fill="#FFFFFF" d="M396.086914,317.789093c-1.127899,1.352509-2.932617,1.708893-4.02832,0.797821
	c-1.098602-0.916016-1.074188-2.752899,0.051819-4.106415c1.127899-1.353485,2.93158-1.709991,4.02829-0.796906
	C397.236298,314.597687,397.212891,316.434601,396.086914,317.789093z"/>
<path fill="#259C3B" d="M218.274399,258.378906l0.216797,9.972198l1.917511-0.059601l-0.090302-3.780304l3.87059-0.179688
	c0,0,0.900406,0.180176,1.080002,3.600098h1.710007c0,0,0.450195-3.240723-1.350098-4.230408
	c0,0,1.350601-0.449707,1.530289-2.609894c0.179703-2.160095-2.051788-2.845703-3.131897-2.845703
	C222.947296,258.245605,218.274399,258.378906,218.274399,258.378906z"/>
<path fill="#FFFFFF" d="M220.102997,259.90921l0.033707,2.797791c0,0,3.463394-0.083008,4.030304-0.099609
	c1.132797-0.033203,1.099594-2.764587-0.066406-2.764587C223.0327,259.842804,220.102997,259.90921,220.102997,259.90921z"/>
<path fill="#259C3B" d="M231.061996,257.610809l0.133301,9.959991c0,0,3.697296-0.100586,5.762695-0.166992
	c2.065414-0.066406,3.164612-2.897919,3.164612-5.163116c0-2.265106-1.298401-4.729492-3.730499-4.663086
	S231.061996,257.610809,231.061996,257.610809z"/>
<path fill="#FFFFFF" d="M232.960907,259.342804l0.066391,6.395508c0,0,2.731995-0.033203,3.531296-0.033203
	s1.93161-1.398499,1.93161-3.13092c0-1.732391-1.099106-3.264587-2.131805-3.264587S232.960907,259.342804,232.960907,259.342804z"
	/>
<polygon fill="#259C3B" points="244.252899,257.543915 244.052704,267.503906 252.946793,267.770508 252.946793,265.938507 
	245.718307,265.671906 245.751999,263.106903 251.4478,263.240204 251.4478,261.60791 245.751999,261.474609 245.751999,259.376495 
	252.780304,259.675812 252.780304,257.74411 "/>
<polygon fill="#259C3B" points="257.477112,258.144012 256.611298,267.937012 258.343292,268.003906 258.976105,261.441406 
	260.441895,268.136688 261.873993,268.203613 264.438995,261.907715 264.00589,268.503387 265.638214,268.669891 
	266.471191,258.876495 264.072815,258.743713 261.341309,265.072296 260.008789,258.377014 "/>
<polygon fill="#259C3B" points="278.984406,261.531189 277.421906,270.281189 284.718811,271.640594 285,270 279.328094,268.9375 
	279.75,266.703094 284.328094,267.546906 284.609406,265.875 280.078094,265.031189 280.359406,263.453094 285.796906,264.406189 
	286.0625,262.781189 "/>
<polygon fill="#259C3B" points="360.552704,288.099609 355.485413,296.604523 363.093811,301.115204 364.031311,299.515594 
	357.875,295.953125 359.19339,293.790985 363.798798,296.542511 364.75,294.911102 360.19339,292.176819 361.105499,290.643097 
	366.565399,293.84671 367.480499,292.257324 "/>
<path fill="#259C3B" d="M299.109406,264.4375l-2.734406,9.578094l1.718781,0.609406l1.078125-3.765594
	c0,0,2.453094,0.765594,3.624969,1.109283c1.171906,0.343811,3.1875-0.015594,3.765625-1.859283
	c0.578094-1.843811-0.1875-3.390717-1.8125-3.9375C303.125,265.625,299.109406,264.4375,299.109406,264.4375z"/>
<path fill="#FFFFFF" d="M300.3125,266.546906L299.593781,269.25c0,0,3.046814,0.843689,3.609314,1.031189
	s1.234406-0.125,1.515686-0.765594c0.281219-0.640594,0.25-1.546906-0.703186-1.828094
	C303.0625,267.406189,300.3125,266.546906,300.3125,266.546906z"/>
<path fill="#259C3B" d="M311.875,267.921906l-3.265625,9.421783l1.796936,0.609406l1.171783-3.656189l3.828217,1.234283
	c0,0,0.421783,1.796906-0.218811,3.765717l1.546906,0.546783c0,0,0.906189-2.875,0.281189-4.234283
	c0,0,1.593811-0.234406,2.156311-1.890717c0.5625-1.656189-0.453094-3.296783-1.6875-3.843689
	S311.875,267.921906,311.875,267.921906z"/>
<path fill="#FFFFFF" d="M312.828094,270.078094l-0.734283,2.578094c0,0,2.9375,1.015717,3.578094,1.234406
	c0.640594,0.218811,1.375-0.171906,1.640594-0.890594c0.265594-0.718811,0-1.4375-1.125-1.8125
	S312.828094,270.078094,312.828094,270.078094z"/>
<path fill="#259C3B" d="M348.834015,282.166992l-4.669922,8.810516l1.68161,0.877502l1.718811-3.433624l3.593689,1.806122
	c0,0,0.141602,1.840393-0.792999,3.6875l1.444397,0.777405c0,0,1.335907-2.702209,0.926697-4.141113
	c0,0,1.611389,0.012207,2.420898-1.538086c0.809601-1.550812,0.056702-3.327728-1.079102-4.057129
	C352.942413,284.226593,348.834015,282.166992,348.834015,282.166992z"/>
<path fill="#FFFFFF" d="M349.445312,284.443787l-1.120117,2.43512c0,0,2.747101,1.453583,3.34671,1.768097
	c0.599609,0.314392,1.384705,0.040497,1.757782-0.628906c0.372101-0.669495,0.219727-1.42041-0.833984-1.963409
	C351.540985,285.511688,349.445312,284.443787,349.445312,284.443787z"/>
<path fill="#259C3B" d="M342.756805,284.825714l-3.341797-1.561127l-0.680603,1.320801l1.441406,0.680725
	c-0.817413,0.696289-2.076202,0.865692-2.953125,0.451691c-1.291992-0.610901-1.728577-2.396515-0.9776-3.988312
	c0.752899-1.592804,2.410217-2.389191,3.700226-1.779297c0.817383,0.385712,1.289093,1.243195,1.337891,2.224091l1.468811,0.695801
	c0.287079-1.960388-0.463928-3.81488-2.033203-4.557587c-2.024506-0.955109-4.621124,0.292999-5.800812,2.789093
	c-1.176788,2.497009-0.492188,5.296295,1.531189,6.252411c1.132812,0.53421,2.664124,0.492188,3.806702-0.187012l-0.760803,1.520996
	l1.180725,0.640106L342.756805,284.825714z"/>
<path fill="#259C3B" d="M375.84671,300.727509l1.628876,1.018616c0,0,0.407227-0.552704,0.407227-1.658234
	c0-1.10498-0.698212-2.268066-2.414001-3.227966c-1.715912-0.960022-3.606506-1.541504-4.682709-0.26181
	c-1.076111,1.279785-1.017517,2.471191,0.7276,4.333099c1.745087,1.861786,2.616211,2.966278,1.889587,3.635193
	c-0.726501,0.669006-2.121979-0.203094-2.674805-0.75592c-0.552673-0.552673-1.046875-1.599579-0.785095-2.239166
	l-1.803802-1.076202c0,0-0.463776,0.667999-0.435486,1.424805c0.02829,0.756866,0.377899,2.007782,2.239288,3.257782
	c1.861298,1.25,4.275421,2.064484,5.525421,0.319397s0.435486-2.878906-1.22171-4.478485
	c-1.657288-1.599701-2.268616-2.617218-1.599609-3.082611c0.668915-0.465302,1.773407-0.058594,2.500916,0.697815
	C375.876007,299.390106,375.933594,299.970703,375.84671,300.727509z"/>
<path fill="#259C3B" d="M386.700195,308.088898l1.593719,1.072205c0,0,0.425781-0.539001,0.462891-1.643494
	c0.037109-1.103516-0.622009-2.291016-2.304718-3.306702c-1.682587-1.017517-3.552673-1.662109-4.670776-0.418915
	c-1.119202,1.243195-1.100616,2.435516,0.580994,4.354523c1.682587,1.919891,2.515594,3.052673,1.767609,3.697174
	c-0.749023,0.643616-2.114319-0.274384-2.648499-0.845703c-0.534119-0.570282-0.992126-1.633698-0.7099-2.26358l-1.766602-1.136719
	c0,0-0.485413,0.652313-0.482422,1.409119c0.002899,0.757782,0.310516,2.019592,2.128906,3.331085
	c1.818298,1.3125,4.203094,2.207001,5.510712,0.504913c1.308594-1.702209,0.532196-2.862305-1.070312-4.516602
	s-2.179688-2.692413-1.495087-3.134796c0.683594-0.442413,1.774384,0.001007,2.475586,0.781281
	C386.774414,306.752014,386.8125,307.334991,386.700195,308.088898z"/>
</svg>
